<?xml version="1.0" standalone="no"?>
<!DOCTYPE svg PUBLIC "-//W3C//DTD SVG 1.1//EN"
  "http://www.w3.org/Graphics/SVG/1.1/DTD/svg11.dtd">
<svg width="99mm" height="86.99999999999999mm" viewBox="-46 -19.999999999999996 99 86.99999999999999" xmlns="http://www.w3.org/2000/svg" version="1.1">
	<title>svgOutput</title>
	<desc>made with tinkercad</desc>
<path d="M -44.983001708984375 62.84400177001952 L -45 62.499999999999986 L -45 62.27225875854491 L -45 62.084403991699205 L -45 61.90811157226561 L -45 61.43999862670897 L -45 58.999999999999986 L -45 50.999999999999986 L -45 49.15200042724608 L -45 47.49999999999999 L -44.983001708984375 47.15700149536132 L -44.93299865722656 46.818000793457024 L -44.8489990234375 46.48400115966796 L -44.73400115966797 46.160999298095696 L -44.58700180053711 45.851001739501946 L -44.40999984741211 45.55599975585937 L -44.20600128173828 45.27999877929687 L -44.00228500366211 45.05599975585937 L -43.974998474121094 45.02600097656249 L -43.720001220703125 44.794998168945305 L -43.44499969482422 44.59000015258788 L -43.150001525878906 44.41400146484374 L -42.8390007019043 44.26699829101562 L -42.51599884033203 44.15100097656249 L -42.18299865722656 44.068000793457024 L -41.84299850463867 44.01699829101562 L -41.5 43.99999999999999 L -40.959999084472656 43.99999999999999 L -38 43.99999999999999 L 31 43.99999999999999 L 32.768001556396484 43.99999999999999 L 34.5 43.99999999999999 L 34.84299850463867 44.01699829101562 L 35.18299865722656 44.068000793457024 L 35.51599884033203 44.15100097656249 L 35.8390007019043 44.26699829101562 L 36.150001525878906 44.41400146484374 L 36.444000244140625 44.59000015258788 L 36.720001220703125 44.794998168945305 L 36.86399841308594 44.92544555664062 L 36.974998474121094 45.02600097656249 L 37.20500183105469 45.27999877929687 L 37.40999984741211 45.55599975585937 L 37.58700180053711 45.851001739501946 L 37.73400115966797 46.160999298095696 L 37.8489990234375 46.48400115966796 L 37.93299865722656 46.818000793457024 L 37.983001708984375 47.15700149536132 L 38 47.49999999999999 L 38 47.728740692138665 L 38 47.91739273071288 L 38 48.09057235717772 L 38 48.27904891967772 L 38 48.46166610717772 L 38 49.15200042724608 L 38 50.999999999999986 L 38 58.999999999999986 L 38 60.70299911499022 L 38 61.43999862670897 L 38 62.499999999999986 L 37.983001708984375 62.84400177001952 L 37.93299865722656 63.18299865722655 L 37.8489990234375 63.51599884033202 L 37.73400115966797 63.840000152587876 L 37.58700180053711 64.15000152587889 L 37.40999984741211 64.4449996948242 L 37.20500183105469 64.7210006713867 L 36.974998474121094 64.97499847412108 L 36.720001220703125 65.20600128173827 L 36.444000244140625 65.41100311279295 L 36.235191345214844 65.53600311279295 L 36.150001525878906 65.58699798583983 L 35.8390007019043 65.73400115966795 L 35.51599884033203 65.84999847412108 L 35.18299865722656 65.93299865722655 L 34.84299850463867 65.98400115966795 L 34.5 65.99999999999999 L 34.263668060302734 65.99999999999999 L 34.08580780029297 65.99999999999999 L 33.90167236328125 65.99999999999999 L 33.72376251220703 65.99999999999999 L 33.54224395751953 65.99999999999999 L 31 65.99999999999999 L -38 65.99999999999999 L -41.5 65.99999999999999 L -41.84299850463867 65.98400115966795 L -42.18299865722656 65.93299865722655 L -42.51599884033203 65.84999847412108 L -42.8390007019043 65.73400115966795 L -43.150001525878906 65.58699798583983 L -43.23548126220703 65.53600311279295 L -43.44499969482422 65.41100311279295 L -43.720001220703125 65.20600128173827 L -43.974998474121094 64.97499847412108 L -44.20600128173828 64.7210006713867 L -44.40999984741211 64.4449996948242 L -44.58700180053711 64.15000152587889 L -44.73400115966797 63.840000152587876 L -44.8489990234375 63.51599884033202 L -44.93299865722656 63.18299865722655 L -44.983001708984375 62.84400177001952 M 31 41.99999999999999 L -24.652000427246094 41.99999999999999 L -35.95199966430664 41.99999999999999 L -38 41.99999999999999 L -40.959999084472656 41.99999999999999 L -41.5 41.99999999999999 L -41.84299850463867 41.98400115966796 L -42.18299865722656 41.932998657226555 L -42.51599884033203 41.84999847412109 L -42.8390007019043 41.73400115966796 L -43.150001525878906 41.5870018005371 L -43.44499969482422 41.410999298095696 L -43.720001220703125 41.206001281738274 L -43.974998474121094 40.97499847412109 L -43.98863983154297 40.95999908447265 L -44.20600128173828 40.72100067138671 L -44.40999984741211 40.44499969482421 L -44.58700180053711 40.1500015258789 L -44.73400115966797 39.84000015258788 L -44.8489990234375 39.515998840332024 L -44.93299865722656 39.182998657226555 L -44.983001708984375 38.844001770019524 L -45 38.49999999999999 L -45 38.272258758544915 L -45 38.08440399169921 L -45 37.90811157226562 L -45 37.72195053100585 L -45 36.86399841308593 L -45 34.99999999999999 L -45 26.999999999999993 L -45 24.57600021362304 L -45 23.499999999999996 L -44.983001708984375 23.15699958801269 L -44.93299865722656 22.818000793457028 L -44.8489990234375 22.483999252319332 L -44.73400115966797 22.1609992980957 L -44.58700180053711 21.850999832153317 L -44.40999984741211 21.55599975585937 L -44.20600128173828 21.280000686645504 L -43.974998474121094 21.025999069213864 L -43.720001220703125 20.79500007629394 L -43.44499969482422 20.590000152587887 L -43.260623931884766 20.479999542236325 L -43.150001525878906 20.413999557495114 L -42.8390007019043 20.267000198364254 L -42.51599884033203 20.150999069213864 L -42.18299865722656 20.068000793457028 L -41.84299850463867 20.017000198364254 L -41.5 19.999999999999996 L -40.959999084472656 19.999999999999996 L -40.097999572753906 19.999999999999996 L -38 19.999999999999996 L -35.95199966430664 19.999999999999996 L -33.547000885009766 19.999999999999996 L -24.652000427246094 19.999999999999996 L 35.553001403808594 19.999999999999996 L 40.54800033569336 19.999999999999996 L 42.952999114990234 19.999999999999996 L 45 19.999999999999996 L 48.5 19.999999999999996 L 48.84299850463867 20.017000198364254 L 49.152000427246094 20.06335067749023 L 49.18299865722656 20.068000793457028 L 49.51599884033203 20.150999069213864 L 49.8390007019043 20.267000198364254 L 50.150001525878906 20.413999557495114 L 50.260250091552734 20.479999542236325 L 50.444000244140625 20.590000152587887 L 50.720001220703125 20.79500007629394 L 50.974998474121094 21.025999069213864 L 51.20500183105469 21.280000686645504 L 51.40999984741211 21.55599975585937 L 51.58700180053711 21.850999832153317 L 51.704124450683594 22.097999572753903 L 51.73400115966797 22.1609992980957 L 51.8489990234375 22.483999252319332 L 51.93299865722656 22.818000793457028 L 51.983001708984375 23.15699958801269 L 52 23.499999999999996 L 52 23.72874069213867 L 52 23.917392730712887 L 52 24.09057426452636 L 52 24.57600021362304 L 52 24.90299987792968 L 52 26.999999999999993 L 52 30.003000259399407 L 52 32.0979995727539 L 52 34.90299987792968 L 52 34.99999999999999 L 52 36.86399841308593 L 52 38.49999999999999 L 51.983001708984375 38.844001770019524 L 51.93299865722656 39.182998657226555 L 51.8489990234375 39.515998840332024 L 51.73400115966797 39.84000015258788 L 51.656707763671875 40.002998352050774 L 51.58700180053711 40.1500015258789 L 51.40999984741211 40.44499969482421 L 51.20500183105469 40.72100067138671 L 50.988582611083984 40.95999908447265 L 50.974998474121094 40.97499847412109 L 50.720001220703125 41.206001281738274 L 50.444000244140625 41.410999298095696 L 50.150001525878906 41.5870018005371 L 49.8390007019043 41.73400115966796 L 49.51599884033203 41.84999847412109 L 49.18299865722656 41.932998657226555 L 49.152000427246094 41.93764877319335 L 48.84299850463867 41.98400115966796 L 48.5 41.99999999999999 L 48.263668060302734 41.99999999999999 L 48.08580780029297 41.99999999999999 L 47.90167236328125 41.99999999999999 L 47.72376251220703 41.99999999999999 L 47.54224395751953 41.99999999999999 L 47.345123291015625 41.99999999999999 L 47.156494140625 41.99999999999999 L 46.957183837890625 41.99999999999999 L 45 41.99999999999999 L 40.54800033569336 41.99999999999999 L 38 41.99999999999999 L 35.553001403808594 41.99999999999999 L 31 41.99999999999999 M -44.983001708984375 14.843999862670895 L -45 14.499999999999996 L -45 14.272259712219235 L -45 14.084404945373532 L -45 13.908113479614254 L -45 13.721952438354489 L -45 13.539333343505856 L -45 13.354235649108883 L -45 12.28800010681152 L -45 10.999999999999998 L -45 -11.999999999999996 L -45 -12.28800010681152 L -45 -15.499999999999996 L -44.983001708984375 -15.843000411987301 L -44.93299865722656 -16.181999206542965 L -44.882198333740234 -16.38400077819824 L -44.8489990234375 -16.51600074768066 L -44.73400115966797 -16.839000701904293 L -44.58700180053711 -17.149000167846676 L -44.40999984741211 -17.44400024414062 L -44.20600128173828 -17.71999931335449 L -43.974998474121094 -17.97400093078613 L -43.720001220703125 -18.20499992370605 L -43.44499969482422 -18.409999847412106 L -43.150001525878906 -18.58600044250488 L -43.00299835205078 -18.655483245849606 L -42.8390007019043 -18.73299980163574 L -42.51599884033203 -18.84900093078613 L -42.18299865722656 -18.931999206542965 L -41.84299850463867 -18.98299980163574 L -41.5 -18.999999999999996 L -40.959999084472656 -18.999999999999996 L -39.99800109863281 -18.999999999999996 L -38 -18.999999999999996 L -37.90299987792969 -18.999999999999996 L -35.097999572753906 -18.999999999999996 L -33.00299835205078 -18.999999999999996 L -29.99799919128418 -18.999999999999996 L -27.902999877929688 -18.999999999999996 L -25.097999572753906 -18.999999999999996 L -23.003000259399414 -18.999999999999996 L -19.99799919128418 -18.999999999999996 L -17.902999877929688 -18.999999999999996 L -15.097999572753906 -18.999999999999996 L -13.003000259399414 -18.999999999999996 L -9.998000144958496 -18.999999999999996 L -7.9029998779296875 -18.999999999999996 L -5.0980000495910645 -18.999999999999996 L -3.003000020980835 -18.999999999999996 L 0.0020000000949949026 -18.999999999999996 L 2.0969998836517334 -18.999999999999996 L 4.9019999504089355 -18.999999999999996 L 6.997000217437744 -18.999999999999996 L 10.001999855041504 -18.999999999999996 L 12.097000122070312 -18.999999999999996 L 14.902000427246094 -18.999999999999996 L 16.996999740600586 -18.999999999999996 L 20.00200080871582 -18.999999999999996 L 22.097000122070312 -18.999999999999996 L 24.902000427246094 -18.999999999999996 L 26.996999740600586 -18.999999999999996 L 30.00200080871582 -18.999999999999996 L 32.09700012207031 -18.999999999999996 L 34.902000427246094 -18.999999999999996 L 36.99700164794922 -18.999999999999996 L 40.00199890136719 -18.999999999999996 L 42.09700012207031 -18.999999999999996 L 44.902000427246094 -18.999999999999996 L 45 -18.999999999999996 L 46.99700164794922 -18.999999999999996 L 48.5 -18.999999999999996 L 48.84299850463867 -18.98299980163574 L 49.152000427246094 -18.936649322509762 L 49.18299865722656 -18.931999206542965 L 49.51599884033203 -18.84900093078613 L 49.8390007019043 -18.73299980163574 L 50.00199890136719 -18.65595436096191 L 50.150001525878906 -18.58600044250488 L 50.444000244140625 -18.409999847412106 L 50.720001220703125 -18.20499992370605 L 50.974998474121094 -17.97400093078613 L 51.20500183105469 -17.71999931335449 L 51.40999984741211 -17.44400024414062 L 51.58700180053711 -17.149000167846676 L 51.73400115966797 -16.839000701904293 L 51.8489990234375 -16.51600074768066 L 51.882198333740234 -16.38400077819824 L 51.93299865722656 -16.181999206542965 L 51.983001708984375 -15.843000411987301 L 52 -15.499999999999996 L 52 -15.271260261535641 L 52 -15.082607269287106 L 52 -14.90942573547363 L 52 -14.720952033996578 L 52 -14.538332939147946 L 52 -14.349341392517086 L 52 -14.156956672668453 L 52 -13.953529357910153 L 52 -13.744724273681637 L 52 -13.52048301696777 L 52 -13.28743743896484 L 52 -12.28800010681152 L 52 -11.999999999999996 L 52 -11.902000427246092 L 52 -9.09700012207031 L 52 -3.996999979019164 L 52 -1.901999950408935 L 52 0.9029999971389769 L 52 6.002999782562254 L 52 8.097999572753904 L 52 10.902999877929686 L 52 10.999999999999998 L 52 12.28800010681152 L 52 14.499999999999996 L 51.983001708984375 14.843999862670895 L 51.93299865722656 15.182999610900875 L 51.8489990234375 15.515999794006344 L 51.73400115966797 15.840000152587887 L 51.656707763671875 16.00300025939941 L 51.58700180053711 16.14999961853027 L 51.44660186767578 16.38400077819824 L 51.40999984741211 16.444999694824215 L 51.20500183105469 16.721000671386715 L 50.974998474121094 16.975000381469723 L 50.720001220703125 17.205999374389645 L 50.444000244140625 17.4109992980957 L 50.150001525878906 17.586999893188473 L 49.8390007019043 17.733999252319332 L 49.51599884033203 17.850000381469723 L 49.18299865722656 17.93300056457519 L 49.152000427246094 17.93765068054199 L 48.84299850463867 17.983999252319332 L 48.5 17.999999999999996 L 48.263668060302734 17.999999999999996 L 48.08580780029297 17.999999999999996 L 47.90167236328125 17.999999999999996 L 47.72376251220703 17.999999999999996 L 47.54224395751953 17.999999999999996 L 47.345123291015625 17.999999999999996 L 47.156494140625 17.999999999999996 L 46.957183837890625 17.999999999999996 L 46.739349365234375 17.999999999999996 L 46.52299880981445 17.999999999999996 L 45 17.999999999999996 L 36.99700164794922 17.999999999999996 L 35.553001403808594 17.999999999999996 L 34.902000427246094 17.999999999999996 L 32.09700012207031 17.999999999999996 L 26.996999740600586 17.999999999999996 L 24.902000427246094 17.999999999999996 L 22.097000122070312 17.999999999999996 L 16.996999740600586 17.999999999999996 L 14.902000427246094 17.999999999999996 L 12.097000122070312 17.999999999999996 L 6.997000217437744 17.999999999999996 L 4.9019999504089355 17.999999999999996 L 2.0969998836517334 17.999999999999996 L -3.003000020980835 17.999999999999996 L -5.0980000495910645 17.999999999999996 L -7.9029998779296875 17.999999999999996 L -13.003000259399414 17.999999999999996 L -15.097999572753906 17.999999999999996 L -17.902999877929688 17.999999999999996 L -23.003000259399414 17.999999999999996 L -24.652000427246094 17.999999999999996 L -25.097999572753906 17.999999999999996 L -27.902999877929688 17.999999999999996 L -33.00299835205078 17.999999999999996 L -35.097999572753906 17.999999999999996 L -37.90299987792969 17.999999999999996 L -38 17.999999999999996 L -40.959999084472656 17.999999999999996 L -41.5 17.999999999999996 L -41.84299850463867 17.983999252319332 L -42.18299865722656 17.93300056457519 L -42.51599884033203 17.850000381469723 L -42.8390007019043 17.733999252319332 L -43.150001525878906 17.586999893188473 L -43.44499969482422 17.4109992980957 L -43.720001220703125 17.205999374389645 L -43.974998474121094 16.975000381469723 L -44.20600128173828 16.721000671386715 L -44.40999984741211 16.444999694824215 L -44.44660186767578 16.38400077819824 L -44.58700180053711 16.14999961853027 L -44.73400115966797 15.840000152587887 L -44.8489990234375 15.515999794006344 L -44.93299865722656 15.182999610900875 L -44.983001708984375 14.843999862670895 M -42.82866287231445 58.999999999999986 L -42.89400100708008 59.12799835205077 L -42.93516159057617 59.39199829101561 L -42.95199966430664 59.499999999999986 L -42.89400100708008 59.872001647949205 L -42.722999572753906 60.20700073242186 L -42.457000732421875 60.47299957275389 L -42.12200164794922 60.644001007080064 L -41.75 60.70299911499022 L -41.37799835205078 60.644001007080064 L -41.042999267578125 60.47299957275389 L -40.959999084472656 60.38999938964842 L -40.777000427246094 60.20700073242186 L -40.60599899291992 59.872001647949205 L -40.547000885009766 59.499999999999986 L -40.56412887573242 59.39199829101561 L -40.60599899291992 59.12799835205077 L -40.67133712768555 58.999999999999986 L -40.777000427246094 58.79299926757811 L -41.042999267578125 58.52700042724608 L -41.37799835205078 58.35599899291991 L -41.5 58.3369789123535 L -41.75 58.298000335693345 L -42.12200164794922 58.35599899291991 L -42.457000732421875 58.52700042724608 L -42.722999572753906 58.79299926757811 L -42.82866287231445 58.999999999999986 M -42.12200164794922 51.644001007080064 L -41.75 51.70299911499022 L -41.5 51.663349151611314 L -41.37799835205078 51.644001007080064 L -41.042999267578125 51.47299957275389 L -40.777000427246094 51.20700073242186 L -40.7734260559082 51.20000076293944 L -40.67133712768555 50.999999999999986 L -40.60599899291992 50.872001647949205 L -40.547000885009766 50.499999999999986 L -40.60599899291992 50.12799835205077 L -40.777000427246094 49.79299926757811 L -41.042999267578125 49.52700042724608 L -41.37799835205078 49.35599899291991 L -41.75 49.298000335693345 L -42.12200164794922 49.35599899291991 L -42.457000732421875 49.52700042724608 L -42.722999572753906 49.79299926757811 L -42.89400100708008 50.12799835205077 L -42.95199966430664 50.499999999999986 L -42.89400100708008 50.872001647949205 L -42.82866287231445 50.999999999999986 L -42.7265739440918 51.20000076293944 L -42.722999572753906 51.20700073242186 L -42.457000732421875 51.47299957275389 L -42.12200164794922 51.644001007080064 M 34.5 58.3369789123535 L 34.37799835205078 58.35599899291991 L 34.042999267578125 58.52700042724608 L 33.777000427246094 58.79299926757811 L 33.67133712768555 58.999999999999986 L 33.60599899291992 59.12799835205077 L 33.56483840942383 59.39199829101561 L 33.54800033569336 59.499999999999986 L 33.60599899291992 59.872001647949205 L 33.777000427246094 60.20700073242186 L 34.042999267578125 60.47299957275389 L 34.37799835205078 60.644001007080064 L 34.75 60.70299911499022 L 35.12200164794922 60.644001007080064 L 35.457000732421875 60.47299957275389 L 35.722999572753906 60.20700073242186 L 35.89400100708008 59.872001647949205 L 35.952999114990234 59.499999999999986 L 35.93587112426758 59.39199829101561 L 35.89400100708008 59.12799835205077 L 35.82866287231445 58.999999999999986 L 35.722999572753906 58.79299926757811 L 35.457000732421875 58.52700042724608 L 35.12200164794922 58.35599899291991 L 34.75 58.298000335693345 L 34.5 58.3369789123535 M 35.7265739440918 51.20000076293944 L 35.82866287231445 50.999999999999986 L 35.89400100708008 50.872001647949205 L 35.952999114990234 50.499999999999986 L 35.89400100708008 50.12799835205077 L 35.722999572753906 49.79299926757811 L 35.457000732421875 49.52700042724608 L 35.12200164794922 49.35599899291991 L 34.75 49.298000335693345 L 34.37799835205078 49.35599899291991 L 34.042999267578125 49.52700042724608 L 33.777000427246094 49.79299926757811 L 33.60599899291992 50.12799835205077 L 33.54800033569336 50.499999999999986 L 33.60599899291992 50.872001647949205 L 33.67133712768555 50.999999999999986 L 33.7734260559082 51.20000076293944 L 33.777000427246094 51.20700073242186 L 34.042999267578125 51.47299957275389 L 34.37799835205078 51.644001007080064 L 34.5 51.663349151611314 L 34.75 51.70299911499022 L 35.12200164794922 51.644001007080064 L 35.457000732421875 51.47299957275389 L 35.722999572753906 51.20700073242186 L 35.7265739440918 51.20000076293944 M -35.12200164794922 36.64400100708007 L -34.75 36.70299911499023 L -34.37799835205078 36.64400100708007 L -34.042999267578125 36.4729995727539 L -33.777000427246094 36.20700073242187 L -33.60599899291992 35.87200164794921 L -33.547000885009766 35.49999999999999 L -33.60599899291992 35.127998352050774 L -33.7652587890625 34.81600189208984 L -33.777000427246094 34.79299926757812 L -34.042999267578125 34.52700042724609 L -34.37799835205078 34.355998992919915 L -34.75 34.29800033569335 L -35.12200164794922 34.355998992919915 L -35.457000732421875 34.52700042724609 L -35.722999572753906 34.79299926757812 L -35.7347412109375 34.81600189208984 L -35.89400100708008 35.127998352050774 L -35.95199966430664 35.49999999999999 L -35.89400100708008 35.87200164794921 L -35.722999572753906 36.20700073242187 L -35.457000732421875 36.4729995727539 L -35.12200164794922 36.64400100708007 M -35.12200164794922 27.643999099731438 L -34.75 27.702999114990227 L -34.37799835205078 27.643999099731438 L -34.042999267578125 27.4729995727539 L -33.777000427246094 27.207000732421868 L -33.67133712768555 26.999999999999993 L -33.60599899291992 26.87199974060058 L -33.56666564941406 26.6240005493164 L -33.547000885009766 26.499999999999993 L -33.60599899291992 26.128000259399407 L -33.777000427246094 25.792999267578118 L -34.042999267578125 25.527000427246087 L -34.37799835205078 25.356000900268548 L -34.75 25.298000335693352 L -35.12200164794922 25.356000900268548 L -35.457000732421875 25.527000427246087 L -35.722999572753906 25.792999267578118 L -35.89400100708008 26.128000259399407 L -35.95199966430664 26.499999999999993 L -35.93266677856445 26.6240005493164 L -35.89400100708008 26.87199974060058 L -35.82866287231445 26.999999999999993 L -35.722999572753906 27.207000732421868 L -35.457000732421875 27.4729995727539 L -35.12200164794922 27.643999099731438 M 41.37799835205078 27.643999099731438 L 41.75 27.702999114990227 L 42.12200164794922 27.643999099731438 L 42.457000732421875 27.4729995727539 L 42.722999572753906 27.207000732421868 L 42.82866287231445 26.999999999999993 L 42.89400100708008 26.87199974060058 L 42.93333435058594 26.6240005493164 L 42.952999114990234 26.499999999999993 L 42.89400100708008 26.128000259399407 L 42.722999572753906 25.792999267578118 L 42.457000732421875 25.527000427246087 L 42.12200164794922 25.356000900268548 L 41.75 25.298000335693352 L 41.37799835205078 25.356000900268548 L 41.042999267578125 25.527000427246087 L 40.777000427246094 25.792999267578118 L 40.60599899291992 26.128000259399407 L 40.54800033569336 26.499999999999993 L 40.56733322143555 26.6240005493164 L 40.60599899291992 26.87199974060058 L 40.67133712768555 26.999999999999993 L 40.777000427246094 27.207000732421868 L 41.042999267578125 27.4729995727539 L 41.37799835205078 27.643999099731438 M 41.37799835205078 36.64400100708007 L 41.75 36.70299911499023 L 42.12200164794922 36.64400100708007 L 42.457000732421875 36.4729995727539 L 42.722999572753906 36.20700073242187 L 42.89400100708008 35.87200164794921 L 42.952999114990234 35.49999999999999 L 42.89400100708008 35.127998352050774 L 42.7347412109375 34.81600189208984 L 42.722999572753906 34.79299926757812 L 42.457000732421875 34.52700042724609 L 42.12200164794922 34.355998992919915 L 41.75 34.29800033569335 L 41.37799835205078 34.355998992919915 L 41.042999267578125 34.52700042724609 L 40.777000427246094 34.79299926757812 L 40.7652587890625 34.81600189208984 L 40.60599899291992 35.127998352050774 L 40.54800033569336 35.49999999999999 L 40.60599899291992 35.87200164794921 L 40.777000427246094 36.20700073242187 L 41.042999267578125 36.4729995727539 L 41.37799835205078 36.64400100708007 M -41.9640007019043 29.92900085449218 L -41.5 30.003000259399407 L -41.0359992980957 29.92900085449218 L -40.617000579833984 29.715999603271477 L -40.28499984741211 29.384000778198235 L -40.097999572753906 29.017864227294915 L -40.07099914550781 28.965000152587884 L -40.025001525878906 28.67200088500976 L -39.99800109863281 28.499999999999993 L -40.07099914550781 28.035999298095696 L -40.097999572753906 27.983135223388665 L -40.28499984741211 27.617000579833977 L -40.617000579833984 27.284999847412102 L -41.0359992980957 27.072000503540032 L -41.48746109008789 26.999999999999993 L -41.5 26.997999191284173 L -41.51253890991211 26.999999999999993 L -41.9640007019043 27.072000503540032 L -42.382999420166016 27.284999847412102 L -42.715999603271484 27.617000579833977 L -42.90299987792969 27.98485374450683 L -42.92900085449219 28.035999298095696 L -43.00299835205078 28.499999999999993 L -42.97562789916992 28.67200088500976 L -42.92900085449219 28.965000152587884 L -42.90299987792969 29.01614570617675 L -42.715999603271484 29.384000778198235 L -42.382999420166016 29.715999603271477 L -41.9640007019043 29.92900085449218 M -40.062679290771484 38.91199874877929 L -39.99800109863281 38.49999999999999 L -40.07099914550781 38.035999298095696 L -40.28499984741211 37.61700057983398 L -40.617000579833984 37.2849998474121 L -40.959999084472656 37.11063385009765 L -41.0359992980957 37.0719985961914 L -41.5 36.998001098632805 L -41.9640007019043 37.0719985961914 L -42.382999420166016 37.2849998474121 L -42.715999603271484 37.61700057983398 L -42.92900085449219 38.035999298095696 L -43.00299835205078 38.49999999999999 L -42.937435150146484 38.91199874877929 L -42.92900085449219 38.96500015258788 L -42.715999603271484 39.3839988708496 L -42.382999420166016 39.71599960327148 L -41.9640007019043 39.92900085449218 L -41.5 40.002998352050774 L -41.0359992980957 39.92900085449218 L -40.959999084472656 39.89036560058593 L -40.617000579833984 39.71599960327148 L -40.28499984741211 39.3839988708496 L -40.07099914550781 38.96500015258788 L -40.062679290771484 38.91199874877929 M 39.92900085449219 14.965000152587887 L 40.00199890136719 14.499999999999996 L 39.976200103759766 14.33600044250488 L 39.92900085449219 14.036000251770016 L 39.71500015258789 13.616999626159664 L 39.382999420166016 13.284999847412106 L 38.9640007019043 13.071999549865719 L 38.5 12.998000144958493 L 38.0359992980957 13.071999549865719 L 37.617000579833984 13.284999847412106 L 37.284000396728516 13.616999626159664 L 37.07099914550781 14.036000251770016 L 37.023155212402344 14.33600044250488 L 36.99700164794922 14.499999999999996 L 37.07099914550781 14.965000152587887 L 37.284000396728516 15.383999824523922 L 37.617000579833984 15.71599960327148 L 38.0359992980957 15.928999900817868 L 38.5 16.00300025939941 L 38.9640007019043 15.928999900817868 L 39.382999420166016 15.71599960327148 L 39.71500015258789 15.383999824523922 L 39.92900085449219 14.965000152587887 M 41.37799835205078 -3.8559999465942374 L 41.75 -3.7969999313354483 L 42.12200164794922 -3.8559999465942374 L 42.457000732421875 -4.026999950408935 L 42.5260009765625 -4.09600019454956 L 42.722999572753906 -4.2930002212524405 L 42.89400100708008 -4.627999782562255 L 42.952999114990234 -4.999999999999999 L 42.89400100708008 -5.372000217437743 L 42.722999572753906 -5.706999778747558 L 42.457000732421875 -5.973000049591064 L 42.12200164794922 -6.14400005340576 L 41.75 -6.202000141143797 L 41.37799835205078 -6.14400005340576 L 41.042999267578125 -5.973000049591064 L 40.959999084472656 -5.889999866485595 L 40.777000427246094 -5.706999778747558 L 40.60599899291992 -5.372000217437743 L 40.54800033569336 -4.999999999999999 L 40.60599899291992 -4.627999782562255 L 40.777000427246094 -4.2930002212524405 L 40.959999084472656 -4.110000133514403 L 40.9739990234375 -4.09600019454956 L 41.042999267578125 -4.026999950408935 L 41.37799835205078 -3.8559999465942374 M 41.37799835205078 5.144000053405761 L 41.75 5.20300006866455 L 42.12200164794922 5.144000053405761 L 42.457000732421875 4.973000049591064 L 42.722999572753906 4.706999778747558 L 42.89400100708008 4.372000217437743 L 42.937774658203125 4.09600019454956 L 42.952999114990234 3.999999999999999 L 42.89400100708008 3.628000020980834 L 42.722999572753906 3.2929999828338614 L 42.457000732421875 3.0269999504089347 L 42.12200164794922 2.855999946594238 L 41.75 2.79800009727478 L 41.37799835205078 2.855999946594238 L 41.042999267578125 3.0269999504089347 L 40.777000427246094 3.2929999828338614 L 40.60599899291992 3.628000020980834 L 40.54800033569336 3.999999999999999 L 40.56296920776367 4.09600019454956 L 40.60599899291992 4.372000217437743 L 40.777000427246094 4.706999778747558 L 41.042999267578125 4.973000049591064 L 41.37799835205078 5.144000053405761 M 29.929000854492188 14.965000152587887 L 30.00200080871582 14.499999999999996 L 29.976198196411133 14.33600044250488 L 29.929000854492188 14.036000251770016 L 29.71500015258789 13.616999626159664 L 29.382999420166016 13.284999847412106 L 28.964000701904297 13.071999549865719 L 28.5 12.998000144958493 L 28.035999298095703 13.071999549865719 L 27.617000579833984 13.284999847412106 L 27.284000396728516 13.616999626159664 L 27.070999145507812 14.036000251770016 L 27.023155212402344 14.33600044250488 L 26.996999740600586 14.499999999999996 L 27.070999145507812 14.965000152587887 L 27.284000396728516 15.383999824523922 L 27.617000579833984 15.71599960327148 L 28.035999298095703 15.928999900817868 L 28.5 16.00300025939941 L 28.964000701904297 15.928999900817868 L 29.382999420166016 15.71599960327148 L 29.71500015258789 15.383999824523922 L 29.929000854492188 14.965000152587887 M 30.00200080871582 -7.602000236511229 L 26.996999740600586 -7.602000236511229 L 24.902000427246094 -7.602000236511229 L 22.097000122070312 -7.602000236511229 L 20.00200080871582 -7.602000236511229 L 16.996999740600586 -7.602000236511229 L 14.902000427246094 -7.602000236511229 L 12.097000122070312 -7.602000236511229 L 10.001999855041504 -7.602000236511229 L 6.997000217437744 -7.602000236511229 L 4.9019999504089355 -7.602000236511229 L 2.0969998836517334 -7.602000236511229 L 0.0020000000949949026 -7.602000236511229 L -3.003000020980835 -7.602000236511229 L -5.0980000495910645 -7.602000236511229 L -7.9029998779296875 -7.602000236511229 L -9.998000144958496 -7.602000236511229 L -13.003000259399414 -7.602000236511229 L -15.097999572753906 -7.602000236511229 L -17.902999877929688 -7.602000236511229 L -19.99799919128418 -7.602000236511229 L -23.003000259399414 -7.602000236511229 L -24.652000427246094 -7.602000236511229 L -24.652000427246094 6.603000164031981 L -23.003000259399414 6.603000164031981 L -19.99799919128418 6.603000164031981 L -17.902999877929688 6.603000164031981 L -15.097999572753906 6.603000164031981 L -13.003000259399414 6.603000164031981 L -9.998000144958496 6.603000164031981 L -7.9029998779296875 6.603000164031981 L -5.0980000495910645 6.603000164031981 L -3.003000020980835 6.603000164031981 L 0.0020000000949949026 6.603000164031981 L 2.0969998836517334 6.603000164031981 L 4.9019999504089355 6.603000164031981 L 6.997000217437744 6.603000164031981 L 10.001999855041504 6.603000164031981 L 12.097000122070312 6.603000164031981 L 14.902000427246094 6.603000164031981 L 16.996999740600586 6.603000164031981 L 20.00200080871582 6.603000164031981 L 22.097000122070312 6.603000164031981 L 24.902000427246094 6.603000164031981 L 26.996999740600586 6.603000164031981 L 30.00200080871582 6.603000164031981 L 32.09700012207031 6.603000164031981 L 34.902000427246094 6.603000164031981 L 35.553001403808594 6.603000164031981 L 35.553001403808594 -7.602000236511229 L 34.902000427246094 -7.602000236511229 L 32.09700012207031 -7.602000236511229 L 30.00200080871582 -7.602000236511229 M 19.929000854492188 14.965000152587887 L 20.00200080871582 14.499999999999996 L 19.976198196411133 14.33600044250488 L 19.929000854492188 14.036000251770016 L 19.71500015258789 13.616999626159664 L 19.382999420166016 13.284999847412106 L 18.964000701904297 13.071999549865719 L 18.5 12.998000144958493 L 18.035999298095703 13.071999549865719 L 17.617000579833984 13.284999847412106 L 17.284000396728516 13.616999626159664 L 17.070999145507812 14.036000251770016 L 17.023155212402344 14.33600044250488 L 16.996999740600586 14.499999999999996 L 17.070999145507812 14.965000152587887 L 17.284000396728516 15.383999824523922 L 17.617000579833984 15.71599960327148 L 18.035999298095703 15.928999900817868 L 18.5 16.00300025939941 L 18.964000701904297 15.928999900817868 L 19.382999420166016 15.71599960327148 L 19.71500015258789 15.383999824523922 L 19.929000854492188 14.965000152587887 M 9.928999900817871 14.965000152587887 L 10.001999855041504 14.499999999999996 L 9.976198196411133 14.33600044250488 L 9.928999900817871 14.036000251770016 L 9.71500015258789 13.616999626159664 L 9.383000373840332 13.284999847412106 L 8.96399974822998 13.071999549865719 L 8.5 12.998000144958493 L 8.03600025177002 13.071999549865719 L 7.617000102996826 13.284999847412106 L 7.283999919891357 13.616999626159664 L 7.071000099182129 14.036000251770016 L 7.023155212402344 14.33600044250488 L 6.997000217437744 14.499999999999996 L 7.071000099182129 14.965000152587887 L 7.283999919891357 15.383999824523922 L 7.617000102996826 15.71599960327148 L 8.03600025177002 15.928999900817868 L 8.5 16.00300025939941 L 8.96399974822998 15.928999900817868 L 9.383000373840332 15.71599960327148 L 9.71500015258789 15.383999824523922 L 9.928999900817871 14.965000152587887 M -0.07100000232458115 14.965000152587887 L 0.0020000000949949026 14.499999999999996 L -0.02380172349512577 14.33600044250488 L -0.07100000232458115 14.036000251770016 L -0.2849999964237213 13.616999626159664 L -0.6169999837875366 13.284999847412106 L -1.0360000133514404 13.071999549865719 L -1.5 12.998000144958493 L -1.9639999866485596 13.071999549865719 L -2.382999897003174 13.284999847412106 L -2.7160000801086426 13.616999626159664 L -2.928999900817871 14.036000251770016 L -2.9768447875976562 14.33600044250488 L -3.003000020980835 14.499999999999996 L -2.928999900817871 14.965000152587887 L -2.7160000801086426 15.383999824523922 L -2.382999897003174 15.71599960327148 L -1.9639999866485596 15.928999900817868 L -1.5 16.00300025939941 L -1.0360000133514404 15.928999900817868 L -0.6169999837875366 15.71599960327148 L -0.2849999964237213 15.383999824523922 L -0.07100000232458115 14.965000152587887 M -10.071000099182129 14.965000152587887 L -9.998000144958496 14.499999999999996 L -10.023801803588867 14.33600044250488 L -10.071000099182129 14.036000251770016 L -10.28499984741211 13.616999626159664 L -10.616999626159668 13.284999847412106 L -11.03600025177002 13.071999549865719 L -11.5 12.998000144958493 L -11.96399974822998 13.071999549865719 L -12.383000373840332 13.284999847412106 L -12.715999603271484 13.616999626159664 L -12.928999900817871 14.036000251770016 L -12.976844787597656 14.33600044250488 L -13.003000259399414 14.499999999999996 L -12.928999900817871 14.965000152587887 L -12.715999603271484 15.383999824523922 L -12.383000373840332 15.71599960327148 L -11.96399974822998 15.928999900817868 L -11.5 16.00300025939941 L -11.03600025177002 15.928999900817868 L -10.616999626159668 15.71599960327148 L -10.28499984741211 15.383999824523922 L -10.071000099182129 14.965000152587887 M -20.070999145507812 14.965000152587887 L -19.99799919128418 14.499999999999996 L -20.023801803588867 14.33600044250488 L -20.070999145507812 14.036000251770016 L -20.28499984741211 13.616999626159664 L -20.617000579833984 13.284999847412106 L -21.035999298095703 13.071999549865719 L -21.5 12.998000144958493 L -21.964000701904297 13.071999549865719 L -22.382999420166016 13.284999847412106 L -22.715999603271484 13.616999626159664 L -22.929000854492188 14.036000251770016 L -22.976844787597656 14.33600044250488 L -23.003000259399414 14.499999999999996 L -22.929000854492188 14.965000152587887 L -22.715999603271484 15.383999824523922 L -22.382999420166016 15.71599960327148 L -21.964000701904297 15.928999900817868 L -21.5 16.00300025939941 L -21.035999298095703 15.928999900817868 L -20.617000579833984 15.71599960327148 L -20.28499984741211 15.383999824523922 L -20.070999145507812 14.965000152587887 M -30.070999145507812 14.965000152587887 L -29.99799919128418 14.499999999999996 L -30.023801803588867 14.33600044250488 L -30.070999145507812 14.036000251770016 L -30.28499984741211 13.616999626159664 L -30.617000579833984 13.284999847412106 L -31.035999298095703 13.071999549865719 L -31.5 12.998000144958493 L -31.964000701904297 13.071999549865719 L -32.382999420166016 13.284999847412106 L -32.715999603271484 13.616999626159664 L -32.92900085449219 14.036000251770016 L -32.976844787597656 14.33600044250488 L -33.00299835205078 14.499999999999996 L -32.92900085449219 14.965000152587887 L -32.715999603271484 15.383999824523922 L -32.382999420166016 15.71599960327148 L -31.964000701904297 15.928999900817868 L -31.5 16.00300025939941 L -31.035999298095703 15.928999900817868 L -30.617000579833984 15.71599960327148 L -30.28499984741211 15.383999824523922 L -30.070999145507812 14.965000152587887 M -35.097999572753906 -3.852193593978881 L -34.75 -3.7969999313354483 L -34.37799835205078 -3.8559999465942374 L -34.042999267578125 -4.026999950408935 L -33.9739990234375 -4.09600019454956 L -33.777000427246094 -4.2930002212524405 L -33.60599899291992 -4.627999782562255 L -33.547000885009766 -4.999999999999999 L -33.60599899291992 -5.372000217437743 L -33.777000427246094 -5.706999778747558 L -34.042999267578125 -5.973000049591064 L -34.37799835205078 -6.14400005340576 L -34.75 -6.202000141143797 L -34.816001892089844 -6.191709518432615 L -35.097999572753906 -6.14774179458618 L -35.12200164794922 -6.14400005340576 L -35.457000732421875 -5.973000049591064 L -35.722999572753906 -5.706999778747558 L -35.89400100708008 -5.372000217437743 L -35.95199966430664 -4.999999999999999 L -35.89400100708008 -4.627999782562255 L -35.722999572753906 -4.2930002212524405 L -35.5260009765625 -4.09600019454956 L -35.457000732421875 -4.026999950408935 L -35.12200164794922 -3.8559999465942374 L -35.097999572753906 -3.852193593978881 M -35.097999572753906 5.147806644439696 L -34.75 5.20300006866455 L -34.37799835205078 5.144000053405761 L -34.042999267578125 4.973000049591064 L -33.777000427246094 4.706999778747558 L -33.60599899291992 4.372000217437743 L -33.562225341796875 4.09600019454956 L -33.547000885009766 3.999999999999999 L -33.60599899291992 3.628000020980834 L -33.777000427246094 3.2929999828338614 L -34.042999267578125 3.0269999504089347 L -34.37799835205078 2.855999946594238 L -34.75 2.79800009727478 L -35.097999572753906 2.852257966995239 L -35.12200164794922 2.855999946594238 L -35.457000732421875 3.0269999504089347 L -35.722999572753906 3.2929999828338614 L -35.89400100708008 3.628000020980834 L -35.95199966430664 3.999999999999999 L -35.93703079223633 4.09600019454956 L -35.89400100708008 4.372000217437743 L -35.722999572753906 4.706999778747558 L -35.457000732421875 4.973000049591064 L -35.12200164794922 5.144000053405761 L -35.097999572753906 5.147806644439696 M -41.9640007019043 5.92899990081787 L -41.5 6.002999782562254 L -41.0359992980957 5.92899990081787 L -40.617000579833984 5.716000080108642 L -40.28499984741211 5.383999824523925 L -40.097999572753906 5.017864704132079 L -40.07099914550781 4.96500015258789 L -39.99800109863281 4.499999999999999 L -40.061561584472656 4.09600019454956 L -40.07099914550781 4.03599977493286 L -40.097999572753906 3.98313546180725 L -40.28499984741211 3.6170001029968253 L -40.617000579833984 3.2850000858306876 L -41.0359992980957 3.07200002670288 L -41.5 2.9979999065399165 L -41.9640007019043 3.07200002670288 L -42.382999420166016 3.2850000858306876 L -42.715999603271484 3.6170001029968253 L -42.90299987792969 3.9848544597625724 L -42.92900085449219 4.03599977493286 L -42.938568115234375 4.09600019454956 L -43.00299835205078 4.499999999999999 L -42.92900085449219 4.96500015258789 L -42.90299987792969 5.016145706176757 L -42.715999603271484 5.383999824523925 L -42.382999420166016 5.716000080108642 L -41.9640007019043 5.92899990081787 M -41.9640007019043 -4.071000099182128 L -41.5 -3.996999979019164 L -41.0359992980957 -4.071000099182128 L -40.986820220947266 -4.09600019454956 L -40.959999084472656 -4.10963487625122 L -40.617000579833984 -4.2839999198913565 L -40.28499984741211 -4.616000175476073 L -40.097999572753906 -4.982135295867919 L -40.07099914550781 -5.0349998474121085 L -39.99800109863281 -5.499999999999999 L -40.07099914550781 -5.964000225067138 L -40.097999572753906 -6.016864299774168 L -40.28499984741211 -6.382999897003172 L -40.617000579833984 -6.715000152587889 L -40.959999084472656 -6.889365196228026 L -41.0359992980957 -6.927999973297117 L -41.5 -7.001999855041502 L -41.9640007019043 -6.927999973297117 L -42.382999420166016 -6.715000152587889 L -42.715999603271484 -6.382999897003172 L -42.90299987792969 -6.015145301818846 L -42.92900085449219 -5.964000225067138 L -43.00299835205078 -5.499999999999999 L -42.92900085449219 -5.0349998474121085 L -42.90299987792969 -4.983854293823241 L -42.715999603271484 -4.616000175476073 L -42.382999420166016 -4.2839999198913565 L -42.013179779052734 -4.09600019454956 L -41.9640007019043 -4.071000099182128 M -40.07099914550781 14.965000152587887 L -39.99800109863281 14.499999999999996 L -40.023799896240234 14.33600044250488 L -40.07099914550781 14.036000251770016 L -40.28499984741211 13.616999626159664 L -40.617000579833984 13.284999847412106 L -40.959999084472656 13.110634803771969 L -41.0359992980957 13.071999549865719 L -41.5 12.998000144958493 L -41.9640007019043 13.071999549865719 L -42.382999420166016 13.284999847412106 L -42.715999603271484 13.616999626159664 L -42.92900085449219 14.036000251770016 L -42.976844787597656 14.33600044250488 L -43.00299835205078 14.499999999999996 L -42.92900085449219 14.965000152587887 L -42.715999603271484 15.383999824523922 L -42.382999420166016 15.71599960327148 L -41.9640007019043 15.928999900817868 L -41.5 16.00300025939941 L -41.0359992980957 15.928999900817868 L -40.959999084472656 15.890365600585934 L -40.617000579833984 15.71599960327148 L -40.28499984741211 15.383999824523922 L -40.07099914550781 14.965000152587887 M 38.0359992980957 -14.071000099182125 L 38.5 -13.996999740600582 L 38.9119987487793 -14.062706947326657 L 38.9640007019043 -14.071000099182125 L 39.382999420166016 -14.284000396728512 L 39.71500015258789 -14.61600017547607 L 39.92900085449219 -15.034999847412106 L 40.00199890136719 -15.499999999999996 L 39.92900085449219 -15.963999748229977 L 39.71500015258789 -16.382999420166012 L 39.7140007019043 -16.38400077819824 L 39.382999420166016 -16.715000152587887 L 38.9640007019043 -16.927999496459957 L 38.5 -17.002000808715817 L 38.0359992980957 -16.927999496459957 L 37.617000579833984 -16.715000152587887 L 37.285003662109375 -16.38400077819824 L 37.284000396728516 -16.382999420166012 L 37.07099914550781 -15.963999748229977 L 36.99700164794922 -15.499999999999996 L 37.07099914550781 -15.034999847412106 L 37.284000396728516 -14.61600017547607 L 37.617000579833984 -14.284000396728512 L 38.0359992980957 -14.071000099182125 M 28.035999298095703 -14.071000099182125 L 28.5 -13.996999740600582 L 28.672000885009766 -14.024431228637692 L 28.964000701904297 -14.071000099182125 L 29.382999420166016 -14.284000396728512 L 29.71500015258789 -14.61600017547607 L 29.929000854492188 -15.034999847412106 L 30.00200080871582 -15.499999999999996 L 29.929000854492188 -15.963999748229977 L 29.71500015258789 -16.382999420166012 L 29.714000701904297 -16.38400077819824 L 29.382999420166016 -16.715000152587887 L 28.964000701904297 -16.927999496459957 L 28.5 -17.002000808715817 L 28.035999298095703 -16.927999496459957 L 27.617000579833984 -16.715000152587887 L 27.285003662109375 -16.38400077819824 L 27.284000396728516 -16.382999420166012 L 27.070999145507812 -15.963999748229977 L 26.996999740600586 -15.499999999999996 L 27.070999145507812 -15.034999847412106 L 27.284000396728516 -14.61600017547607 L 27.617000579833984 -14.284000396728512 L 28.035999298095703 -14.071000099182125 M 18.035999298095703 -14.071000099182125 L 18.43199920654297 -14.007844924926754 L 18.5 -13.996999740600582 L 18.964000701904297 -14.071000099182125 L 19.382999420166016 -14.284000396728512 L 19.71500015258789 -14.61600017547607 L 19.929000854492188 -15.034999847412106 L 20.00200080871582 -15.499999999999996 L 19.929000854492188 -15.963999748229977 L 19.71500015258789 -16.382999420166012 L 19.714000701904297 -16.38400077819824 L 19.382999420166016 -16.715000152587887 L 18.964000701904297 -16.927999496459957 L 18.5 -17.002000808715817 L 18.035999298095703 -16.927999496459957 L 17.617000579833984 -16.715000152587887 L 17.285003662109375 -16.38400077819824 L 17.284000396728516 -16.382999420166012 L 17.070999145507812 -15.963999748229977 L 16.996999740600586 -15.499999999999996 L 17.070999145507812 -15.034999847412106 L 17.284000396728516 -14.61600017547607 L 17.617000579833984 -14.284000396728512 L 18.035999298095703 -14.071000099182125 M 8.03600025177002 -14.071000099182125 L 8.192000389099121 -14.046120643615719 L 8.5 -13.996999740600582 L 8.96399974822998 -14.071000099182125 L 9.383000373840332 -14.284000396728512 L 9.71500015258789 -14.61600017547607 L 9.928999900817871 -15.034999847412106 L 10.001999855041504 -15.499999999999996 L 9.928999900817871 -15.963999748229977 L 9.71500015258789 -16.382999420166012 L 9.71399974822998 -16.38400077819824 L 9.383000373840332 -16.715000152587887 L 8.96399974822998 -16.927999496459957 L 8.5 -17.002000808715817 L 8.03600025177002 -16.927999496459957 L 7.617000102996826 -16.715000152587887 L 7.285003185272217 -16.38400077819824 L 7.283999919891357 -16.382999420166012 L 7.071000099182129 -15.963999748229977 L 6.997000217437744 -15.499999999999996 L 7.071000099182129 -15.034999847412106 L 7.283999919891357 -14.61600017547607 L 7.617000102996826 -14.284000396728512 L 8.03600025177002 -14.071000099182125 M -2.382999897003174 -14.284000396728512 L -2.0480000972747803 -14.113701820373532 L -1.9639999866485596 -14.071000099182125 L -1.5 -13.996999740600582 L -1.0360000133514404 -14.071000099182125 L -0.6169999837875366 -14.284000396728512 L -0.2849999964237213 -14.61600017547607 L -0.07100000232458115 -15.034999847412106 L 0 -15.487259864807125 L 0.0020000000949949026 -15.499999999999996 L 0 -15.512712478637692 L -0.07100000232458115 -15.963999748229977 L -0.2849999964237213 -16.382999420166012 L -0.28600001335144043 -16.38400077819824 L -0.6169999837875366 -16.715000152587887 L -1.0360000133514404 -16.927999496459957 L -1.5 -17.002000808715817 L -1.9639999866485596 -16.927999496459957 L -2.382999897003174 -16.715000152587887 L -2.7149970531463623 -16.38400077819824 L -2.7160000801086426 -16.382999420166012 L -2.928999900817871 -15.963999748229977 L -3.003000020980835 -15.499999999999996 L -2.928999900817871 -15.034999847412106 L -2.7160000801086426 -14.61600017547607 L -2.382999897003174 -14.284000396728512 M -12.383000373840332 -14.284000396728512 L -12.288000106811523 -14.2357063293457 L -11.96399974822998 -14.071000099182125 L -11.5 -13.996999740600582 L -11.03600025177002 -14.071000099182125 L -10.616999626159668 -14.284000396728512 L -10.28499984741211 -14.61600017547607 L -10.071000099182129 -15.034999847412106 L -9.998000144958496 -15.499999999999996 L -10.071000099182129 -15.963999748229977 L -10.28499984741211 -16.382999420166012 L -10.28600025177002 -16.38400077819824 L -10.616999626159668 -16.715000152587887 L -11.03600025177002 -16.927999496459957 L -11.5 -17.002000808715817 L -11.96399974822998 -16.927999496459957 L -12.383000373840332 -16.715000152587887 L -12.714997291564941 -16.38400077819824 L -12.715999603271484 -16.382999420166012 L -12.928999900817871 -15.963999748229977 L -13.003000259399414 -15.499999999999996 L -12.928999900817871 -15.034999847412106 L -12.715999603271484 -14.61600017547607 L -12.383000373840332 -14.284000396728512 M -20.617000579833984 -14.284000396728512 L -20.479999542236328 -14.420999526977536 L -20.28499984741211 -14.61600017547607 L -20.070999145507812 -15.034999847412106 L -19.99799919128418 -15.499999999999996 L -20.070999145507812 -15.963999748229977 L -20.28499984741211 -16.382999420166012 L -20.285999298095703 -16.38400077819824 L -20.617000579833984 -16.715000152587887 L -21.035999298095703 -16.927999496459957 L -21.5 -17.002000808715817 L -21.964000701904297 -16.927999496459957 L -22.382999420166016 -16.715000152587887 L -22.714996337890625 -16.38400077819824 L -22.715999603271484 -16.382999420166012 L -22.929000854492188 -15.963999748229977 L -23.003000259399414 -15.499999999999996 L -22.929000854492188 -15.034999847412106 L -22.715999603271484 -14.61600017547607 L -22.382999420166016 -14.284000396728512 L -21.964000701904297 -14.071000099182125 L -21.5 -13.996999740600582 L -21.035999298095703 -14.071000099182125 L -20.617000579833984 -14.284000396728512 M -32.92900085449219 -15.963999748229977 L -33.00299835205078 -15.499999999999996 L -32.92900085449219 -15.034999847412106 L -32.768001556396484 -14.718291282653805 L -32.715999603271484 -14.61600017547607 L -32.382999420166016 -14.284000396728512 L -31.964000701904297 -14.071000099182125 L -31.5 -13.996999740600582 L -31.035999298095703 -14.071000099182125 L -30.617000579833984 -14.284000396728512 L -30.28499984741211 -14.61600017547607 L -30.070999145507812 -15.034999847412106 L -29.99799919128418 -15.499999999999996 L -30.070999145507812 -15.963999748229977 L -30.28499984741211 -16.382999420166012 L -30.285999298095703 -16.38400077819824 L -30.617000579833984 -16.715000152587887 L -31.035999298095703 -16.927999496459957 L -31.5 -17.002000808715817 L -31.964000701904297 -16.927999496459957 L -32.382999420166016 -16.715000152587887 L -32.714996337890625 -16.38400077819824 L -32.715999603271484 -16.382999420166012 L -32.768001556396484 -16.280708312988278 L -32.92900085449219 -15.963999748229977 M -41.0359992980957 -16.927999496459957 L -41.5 -17.002000808715817 L -41.9640007019043 -16.927999496459957 L -42.382999420166016 -16.715000152587887 L -42.714996337890625 -16.38400077819824 L -42.715999603271484 -16.382999420166012 L -42.92900085449219 -15.963999748229977 L -43.00299835205078 -15.499999999999996 L -42.92900085449219 -15.034999847412106 L -42.715999603271484 -14.61600017547607 L -42.382999420166016 -14.284000396728512 L -41.9640007019043 -14.071000099182125 L -41.5 -13.996999740600582 L -41.0359992980957 -14.071000099182125 L -40.959999084472656 -14.109634399414059 L -40.617000579833984 -14.284000396728512 L -40.28499984741211 -14.61600017547607 L -40.07099914550781 -15.034999847412106 L -39.99800109863281 -15.499999999999996 L -40.07099914550781 -15.963999748229977 L -40.28499984741211 -16.382999420166012 L -40.2859992980957 -16.38400077819824 L -40.617000579833984 -16.715000152587887 L -40.959999084472656 -16.889364242553707 L -41.0359992980957 -16.927999496459957 M 49.974998474121094 28.67200088500976 L 50.00199890136719 28.499999999999993 L 49.92900085449219 28.035999298095696 L 49.71500015258789 27.617000579833977 L 49.382999420166016 27.284999847412102 L 48.9640007019043 27.072000503540032 L 48.51253890991211 26.999999999999993 L 48.5 26.997999191284173 L 48.48746109008789 26.999999999999993 L 48.0359992980957 27.072000503540032 L 47.617000579833984 27.284999847412102 L 47.284000396728516 27.617000579833977 L 47.07099914550781 28.035999298095696 L 46.99700164794922 28.499999999999993 L 47.02437210083008 28.67200088500976 L 47.07099914550781 28.965000152587884 L 47.284000396728516 29.384000778198235 L 47.617000579833984 29.715999603271477 L 48.0359992980957 29.92900085449218 L 48.5 30.003000259399407 L 48.9640007019043 29.92900085449218 L 49.382999420166016 29.715999603271477 L 49.71500015258789 29.384000778198235 L 49.92900085449219 28.965000152587884 L 49.974998474121094 28.67200088500976 M 49.937320709228516 38.91199874877929 L 50.00199890136719 38.49999999999999 L 49.92900085449219 38.035999298095696 L 49.71500015258789 37.61700057983398 L 49.382999420166016 37.2849998474121 L 49.152000427246094 37.16757202148437 L 48.9640007019043 37.0719985961914 L 48.5 36.998001098632805 L 48.0359992980957 37.0719985961914 L 47.617000579833984 37.2849998474121 L 47.284000396728516 37.61700057983398 L 47.07099914550781 38.035999298095696 L 46.99700164794922 38.49999999999999 L 47.062564849853516 38.91199874877929 L 47.07099914550781 38.96500015258788 L 47.284000396728516 39.3839988708496 L 47.617000579833984 39.71599960327148 L 48.0359992980957 39.92900085449218 L 48.5 40.002998352050774 L 48.9640007019043 39.92900085449218 L 49.152000427246094 39.83343124389648 L 49.382999420166016 39.71599960327148 L 49.71500015258789 39.3839988708496 L 49.92900085449219 38.96500015258788 L 49.937320709228516 38.91199874877929 M 49.92900085449219 4.96500015258789 L 50.00199890136719 4.499999999999999 L 49.938438415527344 4.09600019454956 L 49.92900085449219 4.03599977493286 L 49.71500015258789 3.6170001029968253 L 49.382999420166016 3.2850000858306876 L 48.9640007019043 3.07200002670288 L 48.5 2.9979999065399165 L 48.0359992980957 3.07200002670288 L 47.617000579833984 3.2850000858306876 L 47.284000396728516 3.6170001029968253 L 47.07099914550781 4.03599977493286 L 47.061431884765625 4.09600019454956 L 46.99700164794922 4.499999999999999 L 47.07099914550781 4.96500015258789 L 47.284000396728516 5.383999824523925 L 47.617000579833984 5.716000080108642 L 48.0359992980957 5.92899990081787 L 48.5 6.002999782562254 L 48.9640007019043 5.92899990081787 L 49.382999420166016 5.716000080108642 L 49.71500015258789 5.383999824523925 L 49.92900085449219 4.96500015258789 M 49.013179779052734 -4.09600019454956 L 49.152000427246094 -4.166570186614989 L 49.382999420166016 -4.2839999198913565 L 49.71500015258789 -4.616000175476073 L 49.92900085449219 -5.0349998474121085 L 50.00199890136719 -5.499999999999999 L 49.92900085449219 -5.964000225067138 L 49.71500015258789 -6.382999897003172 L 49.382999420166016 -6.715000152587889 L 49.152000427246094 -6.832429409027098 L 48.9640007019043 -6.927999973297117 L 48.5 -7.001999855041502 L 48.0359992980957 -6.927999973297117 L 47.617000579833984 -6.715000152587889 L 47.284000396728516 -6.382999897003172 L 47.07099914550781 -5.964000225067138 L 46.99700164794922 -5.499999999999999 L 47.07099914550781 -5.0349998474121085 L 47.284000396728516 -4.616000175476073 L 47.617000579833984 -4.2839999198913565 L 47.986820220947266 -4.09600019454956 L 48.0359992980957 -4.071000099182128 L 48.5 -3.996999979019164 L 48.9640007019043 -4.071000099182128 L 49.013179779052734 -4.09600019454956 M 47.617000579833984 -16.715000152587887 L 47.285003662109375 -16.38400077819824 L 47.284000396728516 -16.382999420166012 L 47.07099914550781 -15.963999748229977 L 46.99700164794922 -15.499999999999996 L 47.07099914550781 -15.034999847412106 L 47.284000396728516 -14.61600017547607 L 47.617000579833984 -14.284000396728512 L 48.0359992980957 -14.071000099182125 L 48.5 -13.996999740600582 L 48.9640007019043 -14.071000099182125 L 49.152000427246094 -14.166570663452145 L 49.382999420166016 -14.284000396728512 L 49.71500015258789 -14.61600017547607 L 49.92900085449219 -15.034999847412106 L 50.00199890136719 -15.499999999999996 L 49.92900085449219 -15.963999748229977 L 49.71500015258789 -16.382999420166012 L 49.7140007019043 -16.38400077819824 L 49.382999420166016 -16.715000152587887 L 49.152000427246094 -16.832429885864254 L 48.9640007019043 -16.927999496459957 L 48.5 -17.002000808715817 L 48.0359992980957 -16.927999496459957 L 47.617000579833984 -16.715000152587887 M 49.92900085449219 14.965000152587887 L 50.00199890136719 14.499999999999996 L 49.976200103759766 14.33600044250488 L 49.92900085449219 14.036000251770016 L 49.71500015258789 13.616999626159664 L 49.382999420166016 13.284999847412106 L 49.152000427246094 13.167570114135739 L 48.9640007019043 13.071999549865719 L 48.5 12.998000144958493 L 48.0359992980957 13.071999549865719 L 47.617000579833984 13.284999847412106 L 47.284000396728516 13.616999626159664 L 47.07099914550781 14.036000251770016 L 47.023155212402344 14.33600044250488 L 46.99700164794922 14.499999999999996 L 47.07099914550781 14.965000152587887 L 47.284000396728516 15.383999824523922 L 47.617000579833984 15.71599960327148 L 48.0359992980957 15.928999900817868 L 48.5 16.00300025939941 L 48.9640007019043 15.928999900817868 L 49.152000427246094 15.833429336547848 L 49.382999420166016 15.71599960327148 L 49.71500015258789 15.383999824523922 L 49.92900085449219 14.965000152587887 M 35.553001403808594 38.10300064086913 L 35.553001403808594 26.999999999999993 L 35.553001403808594 23.898000717163082 L -24.652000427246094 23.898000717163082 L -24.652000427246094 26.999999999999993 L -24.652000427246094 36.70299911499023 L -24.652000427246094 38.10300064086913 L 35.553001403808594 38.10300064086913 M -41.5 34.90299987792968 L -40.097999572753906 34.90299987792968 L -40.097999572753906 32.0979995727539 L -41.5 32.0979995727539 L -42.90299987792969 32.0979995727539 L -42.90299987792969 34.90299987792968 L -41.5 34.90299987792968 M -40.097999572753906 22.097999572753903 L -40.959999084472656 22.097999572753903 L -42.90299987792969 22.097999572753903 L -42.90299987792969 24.57600021362304 L -42.90299987792969 24.90299987792968 L -40.097999572753906 24.90299987792968 L -40.097999572753906 24.57600021362304 L -40.097999572753906 22.097999572753903 M 42.09700012207031 13.097999572753903 L 42.09700012207031 15.902999877929684 L 44.902000427246094 15.902999877929684 L 44.902000427246094 13.097999572753903 L 42.09700012207031 13.097999572753903 M 34.902000427246094 15.902999877929684 L 34.902000427246094 13.097999572753903 L 32.09700012207031 13.097999572753903 L 32.09700012207031 15.902999877929684 L 34.902000427246094 15.902999877929684 M 24.902000427246094 15.902999877929684 L 24.902000427246094 13.097999572753903 L 22.097000122070312 13.097999572753903 L 22.097000122070312 15.902999877929684 L 24.902000427246094 15.902999877929684 M 14.902000427246094 15.902999877929684 L 14.902000427246094 13.097999572753903 L 12.097000122070312 13.097999572753903 L 12.097000122070312 15.902999877929684 L 14.902000427246094 15.902999877929684 M 4.9019999504089355 15.902999877929684 L 4.9019999504089355 13.097999572753903 L 2.0969998836517334 13.097999572753903 L 2.0969998836517334 15.902999877929684 L 4.9019999504089355 15.902999877929684 M -5.0980000495910645 15.902999877929684 L -5.0980000495910645 13.097999572753903 L -7.9029998779296875 13.097999572753903 L -7.9029998779296875 15.902999877929684 L -5.0980000495910645 15.902999877929684 M -15.097999572753906 15.902999877929684 L -15.097999572753906 13.097999572753903 L -17.902999877929688 13.097999572753903 L -17.902999877929688 15.902999877929684 L -15.097999572753906 15.902999877929684 M -25.097999572753906 15.902999877929684 L -25.097999572753906 13.097999572753903 L -27.902999877929688 13.097999572753903 L -27.902999877929688 15.902999877929684 L -25.097999572753906 15.902999877929684 M -35.097999572753906 15.902999877929684 L -35.097999572753906 13.097999572753903 L -35.95199966430664 13.097999572753903 L -37.90299987792969 13.097999572753903 L -37.90299987792969 15.902999877929684 L -35.097999572753906 15.902999877929684 M -41.5 10.902999877929686 L -40.097999572753906 10.902999877929686 L -40.097999572753906 8.097999572753904 L -41.5 8.097999572753904 L -42.90299987792969 8.097999572753904 L -42.90299987792969 10.902999877929686 L -41.5 10.902999877929686 M -41.5 0.9029999971389769 L -40.097999572753906 0.9029999971389769 L -40.097999572753906 -1.901999950408935 L -41.5 -1.901999950408935 L -42.90299987792969 -1.901999950408935 L -42.90299987792969 0.9029999971389769 L -41.5 0.9029999971389769 M -41.5 -9.09700012207031 L -40.097999572753906 -9.09700012207031 L -40.097999572753906 -11.902000427246092 L -41.5 -11.902000427246092 L -42.90299987792969 -11.902000427246092 L -42.90299987792969 -9.09700012207031 L -41.5 -9.09700012207031 M 44.902000427246094 -14.097000122070309 L 44.902000427246094 -16.90200042724609 L 42.09700012207031 -16.90200042724609 L 42.09700012207031 -14.097000122070309 L 44.902000427246094 -14.097000122070309 M 34.902000427246094 -14.097000122070309 L 34.902000427246094 -16.90200042724609 L 32.09700012207031 -16.90200042724609 L 32.09700012207031 -14.097000122070309 L 34.902000427246094 -14.097000122070309 M 24.902000427246094 -14.097000122070309 L 24.902000427246094 -16.90200042724609 L 22.097000122070312 -16.90200042724609 L 22.097000122070312 -14.097000122070309 L 24.902000427246094 -14.097000122070309 M 14.902000427246094 -14.097000122070309 L 14.902000427246094 -16.90200042724609 L 12.097000122070312 -16.90200042724609 L 12.097000122070312 -14.097000122070309 L 14.902000427246094 -14.097000122070309 M 4.9019999504089355 -14.097000122070309 L 4.9019999504089355 -16.90200042724609 L 2.0969998836517334 -16.90200042724609 L 2.0969998836517334 -14.097000122070309 L 4.9019999504089355 -14.097000122070309 M -5.0980000495910645 -14.097000122070309 L -5.0980000495910645 -16.90200042724609 L -7.9029998779296875 -16.90200042724609 L -7.9029998779296875 -14.097000122070309 L -5.0980000495910645 -14.097000122070309 M -15.097999572753906 -14.097000122070309 L -15.097999572753906 -16.90200042724609 L -17.902999877929688 -16.90200042724609 L -17.902999877929688 -14.097000122070309 L -15.097999572753906 -14.097000122070309 M -25.097999572753906 -14.097000122070309 L -25.097999572753906 -16.90200042724609 L -27.902999877929688 -16.90200042724609 L -27.902999877929688 -14.097000122070309 L -25.097999572753906 -14.097000122070309 M -35.097999572753906 -14.097000122070309 L -35.097999572753906 -16.90200042724609 L -37.90299987792969 -16.90200042724609 L -37.90299987792969 -14.097000122070309 L -35.097999572753906 -14.097000122070309 M 49.902000427246094 32.0979995727539 L 48.5 32.0979995727539 L 47.09700012207031 32.0979995727539 L 47.09700012207031 34.90299987792968 L 48.5 34.90299987792968 L 49.902000427246094 34.90299987792968 L 49.902000427246094 32.0979995727539 M 49.902000427246094 22.097999572753903 L 49.152000427246094 22.097999572753903 L 47.09700012207031 22.097999572753903 L 47.09700012207031 24.57600021362304 L 47.09700012207031 24.90299987792968 L 49.902000427246094 24.90299987792968 L 49.902000427246094 24.57600021362304 L 49.902000427246094 22.097999572753903 M 49.902000427246094 8.097999572753904 L 48.5 8.097999572753904 L 47.09700012207031 8.097999572753904 L 47.09700012207031 10.902999877929686 L 48.5 10.902999877929686 L 49.902000427246094 10.902999877929686 L 49.902000427246094 8.097999572753904 M 49.902000427246094 -1.901999950408935 L 48.5 -1.901999950408935 L 47.09700012207031 -1.901999950408935 L 47.09700012207031 0.9029999971389769 L 48.5 0.9029999971389769 L 49.902000427246094 0.9029999971389769 L 49.902000427246094 -1.901999950408935 M 49.902000427246094 -11.902000427246092 L 48.5 -11.902000427246092 L 47.09700012207031 -11.902000427246092 L 47.09700012207031 -9.09700012207031 L 48.5 -9.09700012207031 L 49.902000427246094 -9.09700012207031 L 49.902000427246094 -11.902000427246092 z" fill="none" stroke="rgb(255,0,0)" stroke-width="0.001mm" />
</svg>